<svg width="16" height="18" viewBox="0 0 16 18" fill="none" xmlns="http://www.w3.org/2000/svg">
<path d="M5.62287 1.19249C3.74033 1.88975 2.11218 3.39155 1.19635 5.26879C0.891077 5.91241 0.636679 6.60968 0.53492 7.36057C0.178764 9.13054 0.433161 11.0614 1.19635 12.6705C1.70515 13.7432 2.41746 14.655 3.33329 15.4059C4.14736 16.1032 5.11408 16.6395 6.18254 16.9077C7.50541 17.2831 8.87916 17.2831 10.1511 16.9613C11.3214 16.6931 12.4407 16.1032 13.3566 15.1914C14.3233 14.2795 14.9847 13.0996 15.3409 11.7587C15.7479 10.3642 15.7988 8.86237 15.5444 7.41421C13.1022 7.41421 10.6599 7.41421 8.21772 7.41421C8.21772 8.48692 8.21772 9.55963 8.21772 10.6323C9.64235 10.6323 11.067 10.6323 12.4407 10.6323C12.2881 11.6514 11.6775 12.6168 10.8635 13.1532C10.3547 13.5287 9.74411 13.7432 9.13356 13.8505C8.523 13.9577 7.86157 13.9577 7.25101 13.8505C6.64046 13.7432 6.02991 13.4214 5.52111 13.0459C4.70704 12.4559 4.04561 11.5441 3.74033 10.5251C3.38417 9.50599 3.38417 8.37965 3.74033 7.30694C3.99473 6.60968 4.35088 5.91241 4.85968 5.37606C5.47023 4.6788 6.2843 4.19608 7.20013 4.03517C7.96333 3.87427 8.72652 3.87427 9.48971 4.14244C10.1003 4.35699 10.7108 4.73243 11.1687 5.16152C11.6267 4.6788 12.1354 4.14244 12.5934 3.65972C12.8478 3.39155 13.1022 3.12337 13.3566 2.85519C12.6442 2.15793 11.7793 1.56794 10.8635 1.19249C9.18444 0.602502 7.30189 0.602502 5.62287 1.19249Z" fill="white"/>
<path d="M5.62287 1.19249C7.30189 0.602502 9.18443 0.602502 10.8635 1.24613C11.7793 1.62158 12.6442 2.15793 13.3566 2.90883C13.1022 3.177 12.8478 3.44518 12.5934 3.71336C12.1354 4.19608 11.6266 4.73243 11.1687 5.21515C10.7108 4.73243 10.1003 4.35698 9.48971 4.19608C8.7774 3.98154 7.96332 3.9279 7.20013 4.08881C6.33518 4.30335 5.52111 4.78607 4.85967 5.42969C4.35088 5.96605 3.94384 6.66331 3.74033 7.36057C2.87537 6.66331 2.0613 5.96605 1.19635 5.26879C2.11218 3.39155 3.74032 1.88975 5.62287 1.19249Z" fill="#EA4335"/>
<path d="M0.53492 7.36057C0.687559 6.66331 0.891077 5.96604 1.19635 5.26878C2.0613 5.96604 2.87538 6.66331 3.74033 7.36057C3.38417 8.37964 3.38417 9.50599 3.74033 10.5787C2.87538 11.276 2.0613 11.9732 1.19635 12.6705C0.433161 11.0078 0.178764 9.13054 0.53492 7.36057Z" fill="#FBBC05"/>
<path d="M8.16685 7.41422C10.6091 7.41422 13.0513 7.41422 15.4935 7.41422C15.7479 8.86237 15.697 10.3642 15.29 11.7587C14.9338 13.0459 14.2724 14.2259 13.3057 15.1914C12.4916 14.4941 11.6775 13.8505 10.8126 13.1532C11.6267 12.5632 12.1863 11.6514 12.3899 10.6323C10.9652 10.6323 9.5406 10.6323 8.16685 10.6323C8.16685 9.55963 8.16685 8.48692 8.16685 7.41422Z" fill="#4285F4"/>
<path d="M1.19635 12.6705C2.0613 11.9732 2.87537 11.276 3.74033 10.5787C4.0456 11.5978 4.70704 12.5096 5.52111 13.0996C6.0299 13.475 6.64046 13.7432 7.25101 13.9041C7.86157 14.0114 8.47212 14.0114 9.13355 13.9041C9.74411 13.7968 10.3547 13.5287 10.8635 13.2068C11.6775 13.9041 12.4916 14.5477 13.3566 15.245C12.4407 16.1032 11.3723 16.6931 10.1511 17.015C8.82828 17.3368 7.45453 17.3368 6.18254 16.9613C5.16495 16.6931 4.19824 16.1568 3.33329 15.4595C2.46834 14.655 1.70515 13.6896 1.19635 12.6705Z" fill="#34A853"/>
</svg>
