<svg width="19" height="22" viewBox="0 0 19 22" fill="none" xmlns="http://www.w3.org/2000/svg">
<path d="M9.47002 0C10.5098 0 11.5263 0.297123 12.3909 0.853795C13.2554 1.41047 13.9293 2.20169 14.3272 3.1274C14.7251 4.05311 14.8292 5.07174 14.6264 6.05447C14.4235 7.0372 13.9228 7.9399 13.1875 8.64841C12.4523 9.35692 11.5155 9.83942 10.4957 10.0349C9.47585 10.2304 8.41877 10.13 7.45811 9.7466C6.49745 9.36316 5.67636 8.71382 5.09867 7.88071C4.52099 7.04759 4.21265 6.0681 4.21265 5.06612C4.21402 3.72291 4.76837 2.43509 5.75402 1.4853C6.73967 0.535505 8.0761 0.00132794 9.47002 0Z" fill="#6A7B8E"/>
<path d="M0.469971 22C0.553256 19.6325 1.4798 17.4706 3.10386 15.8705C4.77998 14.2203 7.03909 13.3124 9.46997 13.3124C11.9009 13.3124 14.16 14.2203 15.8361 15.8705C17.4601 17.4706 18.3867 19.6325 18.47 22H0.469971Z" fill="#6A7B8E"/>
</svg>
