<svg width="32" height="32" viewBox="0 0 32 32" fill="none" xmlns="http://www.w3.org/2000/svg">
<path d="M10.666 18.292C10.941 18.772 11.556 18.936 12.031 18.659L15.337 16.981C15.391 16.989 15.445 16.999 15.502 16.999C16.332 16.999 17.002 16.329 17.002 15.499L16.502 7.623C16.502 7.35779 16.3966 7.10343 16.2091 6.91589C16.0215 6.72836 15.7672 6.623 15.502 6.623C15.2368 6.623 14.9824 6.72836 14.7949 6.91589C14.6073 7.10343 14.502 7.35779 14.502 7.623L14.037 14.966L11.033 16.926C10.8039 17.0589 10.6369 17.2773 10.5687 17.5332C10.5005 17.7891 10.5365 18.0617 10.669 18.291L10.666 18.292ZM12.062 9.545C12.1758 9.47943 12.2756 9.39206 12.3556 9.28789C12.4356 9.18372 12.4943 9.06479 12.5283 8.93791C12.5623 8.81103 12.5709 8.67869 12.5537 8.54847C12.5365 8.41824 12.4938 8.29269 12.428 8.179C12.3293 8.00779 12.182 7.86969 12.0049 7.78217C11.8277 7.69465 11.6285 7.66165 11.4326 7.68733C11.2367 7.71302 11.0527 7.79624 10.9041 7.92647C10.7555 8.0567 10.6488 8.22809 10.5976 8.41896C10.5464 8.60982 10.5529 8.81159 10.6164 8.99873C10.6799 9.18588 10.7974 9.35 10.9542 9.47032C11.1109 9.59065 11.2999 9.66178 11.497 9.67472C11.6942 9.68765 11.8908 9.64182 12.062 9.543V9.545ZM8.17997 18.572C8.00862 18.671 7.87048 18.8185 7.78304 18.996C7.69559 19.1735 7.66277 19.373 7.68873 19.5691C7.71468 19.7653 7.79825 19.9494 7.92886 20.098C8.05946 20.2467 8.23123 20.3532 8.42242 20.4042C8.61361 20.4552 8.81563 20.4483 9.00291 20.3844C9.19019 20.3205 9.35431 20.2025 9.47449 20.0454C9.59468 19.8882 9.66553 19.6988 9.67807 19.5014C9.69062 19.3039 9.6443 19.1071 9.54497 18.936C9.41144 18.707 9.19278 18.5402 8.93669 18.4718C8.68061 18.4034 8.40787 18.4391 8.17797 18.571L8.17997 18.572ZM9.17997 10.696C9.06606 10.6254 8.9391 10.5784 8.80665 10.5578C8.6742 10.5372 8.53897 10.5434 8.40898 10.5761C8.27899 10.6088 8.1569 10.6673 8.04998 10.7481C7.94305 10.829 7.85346 10.9305 7.78654 11.0466C7.71962 11.1628 7.67673 11.2912 7.66042 11.4242C7.64411 11.5573 7.65472 11.6922 7.69161 11.8211C7.7285 11.9499 7.79091 12.0701 7.87515 12.1743C7.95939 12.2786 8.06373 12.3649 8.18197 12.428C8.41083 12.548 8.67726 12.5748 8.92542 12.5027C9.17358 12.4306 9.38419 12.2653 9.51311 12.0413C9.64203 11.8173 9.67925 11.5522 9.61696 11.3014C9.55466 11.0506 9.3977 10.8336 9.17897 10.696H9.17997ZM6.62397 15.5C6.62424 15.7655 6.72996 16.02 6.91787 16.2075C7.10578 16.3951 7.36049 16.5003 7.62597 16.5C7.89146 16.4997 8.14596 16.394 8.3335 16.2061C8.52103 16.0182 8.62624 15.7635 8.62597 15.498C8.62571 15.2325 8.51999 14.978 8.33208 14.7905C8.14417 14.6029 7.88946 14.4977 7.62397 14.498C7.35849 14.4983 7.10399 14.604 6.91645 14.7919C6.72892 14.9798 6.62371 15.2345 6.62397 15.5ZM14.501 23.377C14.5008 23.5085 14.5266 23.6386 14.5768 23.7601C14.627 23.8816 14.7006 23.9921 14.7935 24.0851C14.8863 24.1782 14.9966 24.252 15.118 24.3024C15.2394 24.3528 15.3695 24.3789 15.501 24.379C15.6324 24.3791 15.7626 24.3534 15.8841 24.3032C16.0056 24.253 16.116 24.1794 16.2091 24.0865C16.3021 23.9937 16.376 23.8834 16.4264 23.762C16.4768 23.6406 16.5028 23.5105 16.503 23.379C16.5032 23.1135 16.398 22.8588 16.2105 22.6709C16.023 22.483 15.7685 22.3773 15.503 22.377C15.2375 22.3767 14.9828 22.4819 14.7949 22.6695C14.607 22.857 14.5012 23.1115 14.501 23.377ZM10.697 21.822C10.422 22.302 10.587 22.912 11.063 23.187C11.2343 23.286 11.4311 23.332 11.6285 23.3191C11.8259 23.3063 12.0151 23.2351 12.1721 23.1147C12.329 22.9943 12.4468 22.83 12.5104 22.6427C12.574 22.4553 12.5806 22.2534 12.5293 22.0623C12.4781 21.8712 12.3713 21.6996 12.2225 21.5692C12.0737 21.4388 11.8896 21.3555 11.6934 21.3297C11.4973 21.304 11.2979 21.3371 11.1205 21.4247C10.9431 21.5123 10.7957 21.6506 10.697 21.822ZM21.823 10.696C21.7047 10.7591 21.6004 10.8454 21.5162 10.9497C21.4319 11.0539 21.3695 11.1741 21.3326 11.3029C21.2957 11.4318 21.2851 11.5667 21.3014 11.6998C21.3177 11.8328 21.3606 11.9612 21.4275 12.0774C21.4945 12.1935 21.584 12.295 21.691 12.3759C21.7979 12.4567 21.92 12.5152 22.05 12.5479C22.18 12.5806 22.3152 12.5868 22.4477 12.5662C22.5801 12.5457 22.7071 12.4986 22.821 12.428C23.0416 12.2912 23.2004 12.0739 23.2638 11.8221C23.3271 11.5704 23.2901 11.3038 23.1604 11.0789C23.0308 10.8539 22.8188 10.6882 22.5692 10.6167C22.3196 10.5453 22.052 10.5737 21.823 10.696ZM21.457 18.938C21.3903 19.0518 21.3467 19.1776 21.3289 19.3083C21.311 19.4389 21.3192 19.5718 21.3529 19.6993C21.3866 19.8268 21.4452 19.9464 21.5253 20.0512C21.6054 20.1559 21.7054 20.2438 21.8196 20.3098C21.9339 20.3757 22.06 20.4184 22.1908 20.4354C22.3215 20.4524 22.4544 20.4434 22.5817 20.4088C22.7089 20.3743 22.8281 20.3149 22.9324 20.2341C23.0366 20.1533 23.1238 20.0526 23.189 19.938C23.3195 19.7084 23.3539 19.4366 23.2847 19.1817C23.2155 18.9269 23.0484 18.7098 22.8197 18.5777C22.591 18.4457 22.3194 18.4095 22.0641 18.477C21.8088 18.5445 21.5905 18.7102 21.457 18.938ZM24.379 15.5C24.379 14.95 23.931 14.5 23.379 14.5C23.1812 14.5 22.9879 14.5587 22.8234 14.6685C22.659 14.7784 22.5308 14.9346 22.4551 15.1173C22.3794 15.3 22.3596 15.5011 22.3982 15.6951C22.4368 15.8891 22.532 16.0673 22.6719 16.2071C22.8117 16.347 22.9899 16.4422 23.1839 16.4808C23.3779 16.5194 23.5789 16.4996 23.7617 16.4239C23.9444 16.3482 24.1006 16.22 24.2104 16.0556C24.3203 15.8911 24.379 15.6978 24.379 15.5ZM18.574 22.822C18.6396 22.9356 18.727 23.0351 18.8312 23.115C18.9353 23.1948 19.0541 23.2533 19.1809 23.2872C19.3076 23.3211 19.4398 23.3297 19.5699 23.3125C19.7 23.2953 19.8254 23.2527 19.939 23.187C20.0526 23.1213 20.1521 23.0339 20.2319 22.9298C20.3118 22.8257 20.3703 22.7068 20.4042 22.5801C20.4381 22.4533 20.4467 22.3212 20.4295 22.1911C20.4123 22.061 20.3696 21.9356 20.304 21.822C20.2388 21.7074 20.1516 21.6067 20.0473 21.5259C19.9431 21.4451 19.8239 21.3857 19.6967 21.3512C19.5694 21.3166 19.4365 21.3076 19.3058 21.3246C19.175 21.3416 19.0489 21.3843 18.9346 21.4502C18.8204 21.5162 18.7204 21.6041 18.6403 21.7088C18.5602 21.8136 18.5016 21.9332 18.4679 22.0607C18.4342 22.1882 18.426 22.3211 18.4439 22.4517C18.4617 22.5824 18.5053 22.7082 18.572 22.822H18.574ZM18.94 9.546C19.1698 9.67821 19.4427 9.71372 19.6987 9.6447C19.9547 9.57569 20.1728 9.40781 20.305 9.178C20.4372 8.94819 20.4727 8.67527 20.4037 8.41929C20.3347 8.1633 20.1668 7.94521 19.937 7.813C19.708 7.69071 19.4404 7.66229 19.1908 7.73374C18.9412 7.80519 18.7291 7.97091 18.5995 8.19587C18.4699 8.42082 18.4328 8.68736 18.4962 8.93914C18.5595 9.19092 18.7183 9.40818 18.939 9.545L18.94 9.546ZM28.703 14.364C28.073 7.072 21.653 1.67 14.363 2.294C11.2392 2.56422 8.31416 3.93919 6.11297 6.172L4.34097 4.682L3.03297 12.045L10.063 9.497L8.42797 8.12C10.106 6.49228 12.2932 5.49189 14.622 5.287C17.3299 5.05695 20.0185 5.91067 22.0977 7.66081C24.1769 9.41095 25.4767 11.9145 25.712 14.622C25.942 17.3296 25.0886 20.018 23.3389 22.0971C21.5892 24.1762 19.0861 25.4762 16.379 25.712C10.736 26.188 5.77897 22.018 5.28697 16.379C5.18497 15.174 5.30697 14.005 5.59697 12.899L2.32697 14.086C2.23697 14.918 2.22097 15.77 2.29697 16.636C2.92497 23.926 9.34397 29.326 16.637 28.702C23.927 28.072 29.33 21.654 28.705 14.362L28.703 14.364Z" fill="#6A7B8E"/>
</svg>
