<svg width="24" height="24" viewBox="0 0 24 24" fill="none" xmlns="http://www.w3.org/2000/svg">
<path fill-rule="evenodd" clip-rule="evenodd" d="M12.48 4.00055C10.9411 4.00055 9.69368 5.29999 9.69368 6.90293C9.69368 8.50587 10.9411 9.80531 12.48 9.80531C14.0188 9.80531 15.2663 8.50587 15.2663 6.90293C15.2663 5.29999 14.0188 4.00055 12.48 4.00055ZM7.77368 6.90293C7.77368 4.19542 9.88076 2.00055 12.48 2.00055C15.0792 2.00055 17.1863 4.19542 17.1863 6.90293C17.1863 9.61044 15.0792 11.8053 12.48 11.8053C9.88076 11.8053 7.77368 9.61044 7.77368 6.90293Z" fill="#9098B1"/>
<path fill-rule="evenodd" clip-rule="evenodd" d="M10.0971 15.3904C7.17148 15.3904 4.79994 17.8608 4.79994 20.9083V20.9994C4.79994 21.5517 4.37014 21.9994 3.83994 21.9994C3.30975 21.9994 2.87994 21.5517 2.87994 20.9994V20.9083C2.87994 16.7562 6.1111 13.3904 10.0971 13.3904H14.8628C18.8488 13.3904 22.08 16.7562 22.08 20.9083V20.9994C22.08 21.5517 21.6501 21.9994 21.12 21.9994C20.5898 21.9994 20.16 21.5517 20.16 20.9994V20.9083C20.16 17.8608 17.7884 15.3904 14.8628 15.3904H10.0971Z" fill="#9098B1"/>
</svg>
